<svg xmlns="http://www.w3.org/2000/svg" xmlns:svgjs="http://svgjs.com/svgjs" xmlns:xlink="http://www.w3.org/1999/xlink" width="288" height="288"><svg xmlns="http://www.w3.org/2000/svg" width="288" height="288" viewBox="0 0 26 26"><g fill="#fff" class="colorfff svgShape" transform="translate(4.491 -1031.871)"><circle cx="8.509" cy="1044.871" r="13" fill="#002147" class="color1d67b1 svgShape"/><path fill="#002147" style="line-height:normal;text-indent:0;text-align:start;text-decoration-line:none;text-decoration-style:solid;text-decoration-color:#000;text-transform:none;block-progression:tb;isolation:auto;mix-blend-mode:normal" d="M8.552 1057.869a13 13 0 0 0 .877-.031 13 13 0 0 0 1.289-.156 13 13 0 0 0 1.267-.285 13 13 0 0 0 1.235-.409 13 13 0 0 0 1.185-.53 13 13 0 0 0 1.127-.647 13 13 0 0 0 1.057-.756 13 13 0 0 0 .976-.858 13 13 0 0 0 .887-.95 13 13 0 0 0 .785-1.036 13 13 0 0 0 .68-1.107 13 13 0 0 0 .566-1.17 13 13 0 0 0 .446-1.221 13 13 0 0 0 .32-1.26 13 13 0 0 0 .195-1.285 13 13 0 0 0 .041-.82l-8.476-8.477h-9v4l1 1H3.894a.86.86 0 0 0-.668.342 1.067 1.067 0 0 0-.217.658v9a1.072 1.072 0 0 0 .29.746l5.253 5.252z" class="color154082 svgShape" color="#000" font-family="sans-serif" font-weight="400"/><path style="line-height:normal;text-indent:0;text-align:start;text-decoration-line:none;text-decoration-style:solid;text-decoration-color:#000;text-transform:none;block-progression:tb;isolation:auto;mix-blend-mode:normal" d="M4 0v4h1v1H3.885a.86.86 0 0 0-.668.342A1.067 1.067 0 0 0 3 6v9c0 .242.072.472.217.66.145.188.387.34.668.34h9.23a.858.858 0 0 0 .668-.34c.145-.188.217-.418.217-.66V6c0-.242-.072-.47-.217-.658A.86.86 0 0 0 13.115 5H12V4h1V0H4Zm1 1h7v2h-1V2h-1v1H9V2H8v1H7V2H6v1H5V1Zm1 3h5v1H6V4zM4 6h9v5h-.662l-1.416-3.543-1.106 3.867-.879-1.318-.966 1.935-2-3.5L4.69 11H4V6Zm7.078 4.545L11.662 12H13v3H4v-3h1.309l.72-1.441 2 3.502 1.033-2.067 1.122 1.684.894-3.133z" class="color000 svgShape" color="#000" font-family="sans-serif" font-weight="400" overflow="visible" transform="translate(.009 1036.871)"/></g></svg></svg>