<svg xmlns="http://www.w3.org/2000/svg" xmlns:svgjs="http://svgjs.com/svgjs" xmlns:xlink="http://www.w3.org/1999/xlink" width="288" height="288"><svg xmlns="http://www.w3.org/2000/svg" width="288" height="288" viewBox="0 0 32 32"><path fill="#002147" d="M16 0A16 16 0 0 0 0 16a16 16 0 0 0 16 16 16 16 0 0 0 16-16A16 16 0 0 0 16 0zm.5 8.5a3.508 3.508 0 0 1 3.5 3.428c.002.075 0 .043 0 .095v1.778a.5.5 0 0 1-.04.199h1.54a.5.5 0 0 1 .5.5v9a.5.5 0 0 1-.5.5h-10a.5.5 0 0 1-.5-.5v-9a.5.5 0 0 1 .5-.5h1.54a.5.5 0 0 1-.04-.2v-1.798c0-.053 0-.022.002-.1A3.508 3.508 0 0 1 16.5 8.5zm0 1a2.493 2.493 0 0 0-2.498 2.43c.002-.071-.002.02-.002.074V13.8a.5.5 0 0 1-.04.199h5.08a.5.5 0 0 1-.04-.2V11.95A2.495 2.495 0 0 0 16.5 9.5zM12 15v8h9v-8h-9zm4.5 1c.823 0 1.5.677 1.5 1.5 0 .647-.421 1.198-1 1.406v2.418a.5.5 0 1 1-1 0v-2.418c-.579-.208-1-.76-1-1.406 0-.823.677-1.5 1.5-1.5zm0 1c-.282 0-.5.218-.5.5 0 .282.218.5.5.5.282 0 .5-.218.5-.5 0-.282-.218-.5-.5-.5z" class="color000 svgShape"/></svg></svg>